<?xml version="1.0" encoding="UTF-8"?>
<svg id="Layer_2" data-name="Layer 2" xmlns="http://www.w3.org/2000/svg" viewBox="0 0 187.11 187.11">
  <defs>
    <style>
      .cls-1 {
        fill: #fff;
      }

      .cls-2 {
        fill: #e03933;
      }
    </style>
  </defs>
  <g id="Logo-red">
    <g>
      <circle class="cls-2" cx="93.56" cy="93.56" r="93.56"/>
      <g id="logo">
        <path class="cls-1" d="m87.96,27.42l-.44,37.48c-.07,5.29-.14,10.57-.15,15.83,0,2.64,0,5.26.03,7.91.02,2.65.04,5.3.01,7.97-.02,5.33-.16,10.67-.66,16.08-.06.67-.15,1.36-.23,2.03-.08.68-.2,1.38-.31,2.06-.25,1.37-.53,2.72-.87,4.05-.68,2.68-1.59,5.29-2.72,7.84-1.14,2.54-2.49,5.04-4.33,7.34-.92,1.14-1.98,2.23-3.22,3.19-.62.48-1.29.91-2.01,1.29-.72.38-1.48.71-2.28.96-.2.06-.4.12-.6.17-.2.05-.41.1-.61.15-.41.09-.82.14-1.25.19-.84.08-1.71.07-2.59-.02-.88-.1-1.76-.31-2.62-.63-.86-.31-1.7-.73-2.48-1.26-1.56-1.06-2.86-2.52-3.77-4.17-.92-1.65-1.46-3.46-1.75-5.25l8.82-5.09c-.22.84-.36,6.55-.22,7.32.15.76.48,1.46.99,2.05.26.29.56.55.9.77.35.22.73.39,1.15.53.42.14.87.21,1.34.24.24.02.48.01.72.01.24,0,.48-.02.72-.05,1.94-.23,3.87-1.45,5.43-3.18,1.57-1.73,2.8-3.9,3.75-6.19.47-1.15.87-2.34,1.22-3.54.35-1.2.65-2.43.89-3.66.25-1.23.45-2.47.58-3.72.07-.62.12-1.24.16-1.87.04-.63.09-1.26.12-1.9.12-2.55.14-5.14.08-7.73-.06-2.59-.18-5.2-.33-7.8-.16-2.61-.36-5.22-.57-7.84-.2-2.61-.47-5.26-.69-7.89-.47-5.27-.94-10.53-1.46-15.77-.26-2.62-.55-5.24-.84-7.85-.31-2.61-.61-5.22-.96-7.82-.68-5.2-.95-7.4-1.87-12.57l12.91-9.62Z"/>
        <path class="cls-1" d="m70.28,110.99c-1.78-1.53-7.77-4.25-9.74-4.93-.99-.33-1.98-.53-2.99-.61-1-.06-2.02,0-3.04.23-2.03.44-4.08,1.47-5.92,2.99-.46.38-.91.78-1.35,1.21-.44.42-.86.88-1.27,1.35-.81.95-1.57,1.97-2.26,3.05-.7,1.08-1.32,2.22-1.87,3.4-.56,1.18-1.05,2.4-1.47,3.64-.41,1.25-.75,2.52-1.02,3.81-.27,1.29-.45,2.59-.55,3.89-.03.33-.03.65-.05.98,0,.33-.02.64-.01.98,0,.67.02,1.33.06,2,.08,1.33.23,2.67.45,3.99.46,2.65,1.19,5.26,2.19,7.75,1.01,2.49,2.31,4.87,3.87,7.03,1.56,2.17,3.41,4.11,5.51,5.71,4.16,3.2,9.47,4.98,14.66,4.72,2.6-.13,5.17-.73,7.59-1.74,2.42-1,4.69-2.39,6.77-4.03,1.04-.82,2.03-1.71,2.97-2.64.94-.94,1.82-1.93,2.66-2.96,1.67-2.06,3.15-4.27,4.4-6.59.62-1.16,1.2-2.34,1.7-3.53.51-1.2.94-2.39,1.36-3.67.83-2.53,1.51-5.1,2.03-7.71,1.06-5.22,1.53-10.59,1.71-16.06.09-2.74.11-5.5.08-8.29-.04-2.79-.12-5.6-.24-8.44-.22-5.68-.51-11.45-.58-17.3,0-.73-.02-1.46-.02-2.2v-1.1s0-1.07,0-1.07l.02-4.29.02-4.32.08-4.35c.03-1.45.08-2.91.13-4.36.06-1.46.14-2.92.22-4.38.09-1.46.19-2.92.32-4.39.13-1.46.28-2.93.45-4.39.7-5.85,1.78-11.75,3.81-17.45,1.02-2.84,2.31-5.64,4.04-8.2,1.71-2.56,3.93-4.87,6.6-6.43l1.3,1.81c-1.99,1.82-3.47,4.07-4.58,6.5-.55,1.22-1.02,2.48-1.42,3.77-.39,1.3-.73,2.61-1.01,3.95-.27,1.34-.5,2.69-.7,4.05-.19,1.36-.33,2.74-.45,4.12-.25,2.76-.34,5.55-.4,8.35-.02,1.4-.02,2.8,0,4.21.01,1.4.03,2.81.07,4.22.04,1.41.1,2.82.16,4.24.05,1.41.12,2.83.19,4.25l.95,17.1c.35,5.62.86,11.31,1.25,17.1.18,2.9.35,5.82.43,8.77.09,2.95.1,5.93-.04,8.93-.26,6-1.09,12.1-2.81,18.03-.87,2.96-1.93,5.87-3.23,8.68-.33.7-.64,1.39-1.01,2.11-.37.7-.74,1.4-1.14,2.08-.79,1.37-1.64,2.68-2.55,3.96-3.62,5.08-8.15,9.45-13.39,12.78-1.31.83-2.67,1.59-4.07,2.26-1.41.66-2.85,1.26-4.34,1.74-2.97.98-6.1,1.53-9.25,1.55-3.14.02-6.29-.49-9.23-1.49-2.94-.97-5.77-2.43-8.26-4.28-2.5-1.85-4.69-4.07-6.56-6.51-1.87-2.44-3.41-5.11-4.66-7.89-1.26-2.78-2.21-5.69-2.86-8.68-.33-1.49-.59-3-.77-4.53-.09-.76-.15-1.53-.2-2.3-.03-.38-.04-.78-.05-1.17,0-.39-.02-.79,0-1.18,0-1.57.11-3.13.32-4.67.2-1.55.49-3.08.87-4.59.73-3.03,1.83-5.98,3.27-8.82,1.44-2.83,3.27-5.55,5.61-7.98,1.17-1.21,2.48-2.33,3.93-3.33.73-.5,1.48-.97,2.29-1.38.39-.22.81-.4,1.22-.6.21-.09.42-.18.63-.27.21-.09.42-.18.64-.25.86-.33,1.75-.59,2.66-.81.91-.21,1.83-.35,2.77-.45,1.86-.18,3.75-.11,5.57.16,1.82.27,1.9.15,3.58.75,1.67.6.16-.2,1.67.6l2.28,13.81Z"/>
        <path class="cls-1" d="m66.92,86.35c-1.74-.52-8.76-3.23-10.24-4.32-1.48-1.09-2.75-2.41-3.76-3.86-1.01-1.45-1.75-3.02-2.26-4.63-.5-1.61-.78-3.26-.83-4.92-.05-1.66.13-3.32.55-4.94.42-1.62,1.09-3.2,2.02-4.65.92-1.45,2.12-2.75,3.49-3.79,1.37-1.04,2.91-1.81,4.48-2.3,1.59-.5,3.21-.73,4.77-.74.78,0,1.54.03,2.29.12.75.09,1.47.21,2.19.36,2.84.62,5.39,1.68,7.77,2.91,4.74,2.5,8.85,5.64,12.63,9.1,1.89,1.73,3.68,3.56,5.38,5.47.85.96,1.68,1.95,2.47,2.98l1.12,1.49,1.11,1.46c2.97,3.86,6.07,7.59,9.59,10.86.88.82,1.77,1.61,2.7,2.36.93.74,1.89,1.45,2.88,2.1.99.64,2.01,1.24,3.06,1.75,1.05.51,2.13.94,3.23,1.29,1.1.33,2.22.56,3.34.67,1.12.11,2.25.09,3.35-.05,2.2-.29,4.34-1.1,6.21-2.31,1.87-1.21,3.48-2.82,4.7-4.65.6-.92,1.12-1.88,1.51-2.88.39-1,.66-2.01.79-3.01.13-1,.11-1.97-.07-2.84-.17-.87-.5-1.61-.94-2.21-.43-.6-.99-1.04-1.66-1.4-.67-.36-1.46-.61-2.35-.77-1.73-.32-3.4-.08-4.9.62-.75.34-1.46.82-2.11,1.37-.65.56-1.25,1.22-1.78,1.95-.52.73-.99,1.53-1.38,2.38l-.28.65c-.08.22-.18.44-.25.67-.07.23-.16.45-.23.68-.07.23-.14.45-.21.73-.3,1.05-.51,2.13-.8,3.19-.29,1.06-.62,2.13-.89,3.22-.54,2.18-.94,4.44-1.22,6.73-.27,2.29-.44,4.62-.49,6.97-.05,2.35,0,4.71.15,7.08.15,2.37.38,4.74.72,7.11.66,4.74,1.7,9.45,3.11,14.06,1.4,4.61,3.2,9.12,5.53,13.37l-1.87,1.23c-1.54-2.01-2.93-4.12-4.2-6.31-1.27-2.19-2.44-4.44-3.51-6.74-2.12-4.61-3.83-9.41-5.19-14.33-1.36-4.92-2.33-9.98-2.84-15.15-.51-5.16-.55-10.44.12-15.79.18-1.33.36-2.68.68-4.01.33-1.32.82-2.61,1.33-3.89.12-.31.27-.67.42-1.01.14-.35.31-.69.47-1.03.16-.34.34-.68.52-1.02.18-.33.37-.67.57-1,.79-1.31,1.71-2.57,2.78-3.72,1.07-1.15,2.28-2.2,3.62-3.09,1.35-.88,2.82-1.62,4.39-2.11.39-.13.79-.23,1.19-.33.4-.08.8-.18,1.21-.24.81-.14,1.64-.19,2.46-.2.82,0,1.64.07,2.44.19.8.14,1.59.3,2.35.55.38.11.75.26,1.12.39l.56.24c.19.08.37.18.55.26.74.37,1.46.81,2.14,1.33,1.36,1.04,2.55,2.43,3.32,3.99.77,1.56,1.13,3.24,1.18,4.83.05,1.59-.19,3.11-.6,4.52-.82,2.82-2.28,5.26-4.05,7.36-.9,1.04-1.87,2.01-2.92,2.86-1.06.85-2.18,1.62-3.37,2.27-1.19.65-2.44,1.18-3.73,1.59-1.29.41-2.63.67-3.98.79-.67.06-1.35.08-2.02.07-.67-.02-1.35-.06-2.01-.15-1.33-.16-2.63-.46-3.88-.86-1.26-.39-2.48-.88-3.65-1.44-1.18-.55-2.31-1.18-3.4-1.85-1.1-.66-2.16-1.39-3.19-2.14-1.04-.74-2.04-1.53-3.01-2.34-3.89-3.26-7.4-6.9-10.7-10.65l-1.23-1.41-1.2-1.39c-.77-.87-1.59-1.73-2.43-2.56-1.69-1.67-3.49-3.23-5.36-4.7-1.87-1.47-3.8-2.84-5.79-4.08-1.99-1.24-4.04-2.34-6.13-3.21-2.08-.87-4.2-1.52-6.22-1.78-1.01-.12-1.98-.15-2.89-.06-.91.09-1.74.31-2.48.63-1.53.66-2.61,1.71-3.28,3.06-.67,1.34-.9,3.01-.67,4.63.22,1.61.93,3.14,1.88,4.18.47.53,1,.94,1.57,1.23.56.29,1.16.48,1.8.58l2.62,12.37Z"/>
      </g>
    </g>
  </g>
</svg>